<svg width="21" height="17" viewBox="0 0 21 17" fill="none" xmlns="http://www.w3.org/2000/svg">
<path d="M1.03265 1.99147L9.90842 10.8673C10.4576 11.4164 11.3267 11.4508 11.9158 10.9702L12.0297 10.8673L20.8989 1.99807C20.9277 2.1069 20.9474 2.21935 20.9574 2.33459L20.9649 2.50946V14.5095C20.9649 15.5639 20.1491 16.4276 19.1142 16.504L18.9649 16.5095H2.96492C1.91056 16.5095 1.04675 15.6936 0.970406 14.6587L0.96492 14.5095V2.50946C0.96492 2.39003 0.975387 2.27305 0.995455 2.15938L1.03265 1.99147ZM18.9649 0.50946C19.086 0.50946 19.2045 0.520211 19.3196 0.540813L19.4896 0.57899L10.9691 9.09946L2.44683 0.57722C2.55699 0.547754 2.6709 0.527461 2.78768 0.517206L2.96492 0.50946H18.9649Z" fill="#60411C" fill-opacity="0.85"/>
</svg>
