<svg width="18" height="21" viewBox="0 0 18 21" fill="none" xmlns="http://www.w3.org/2000/svg">
<path d="M9 0.592529C13.9706 0.592529 18 4.62197 18 9.59253C18 12.6663 16.3241 15.1817 14.5584 16.987C13.5897 17.9774 12.5597 18.7898 11.6817 19.4038L11.2564 19.6942C11.1879 19.7398 11.1208 19.784 11.0551 19.8268L10.6789 20.0665L10.3429 20.2717L9.9271 20.5135C9.3479 20.8406 8.6521 20.8406 8.0729 20.5135L7.65713 20.2717L7.13766 19.9509C7.07492 19.911 7.01063 19.8696 6.94491 19.8268L6.53449 19.5532C5.61244 18.924 4.49106 18.0599 3.44162 16.987C1.6759 15.1817 0 12.6663 0 9.59253C0 4.62197 4.02944 0.592529 9 0.592529ZM9 6.59253C7.3431 6.59253 6 7.93568 6 9.59253C6 11.2494 7.3431 12.5925 9 12.5925C10.6569 12.5925 12 11.2494 12 9.59253C12 7.93568 10.6569 6.59253 9 6.59253Z" fill="#60411C" fill-opacity="0.85"/>
</svg>
