<svg width="18" height="21" viewBox="0 0 18 21" fill="none" xmlns="http://www.w3.org/2000/svg">
<path d="M9 11.6757C11.3955 11.6757 13.5753 12.3694 15.1777 13.3472C15.9786 13.8359 16.6621 14.412 17.156 15.0372C17.642 15.6524 18 16.3887 18 17.1757C18 18.0206 17.5889 18.6868 16.9973 19.1616C16.4368 19.6116 15.6982 19.9093 14.9128 20.1173C13.3353 20.535 11.229 20.6757 9 20.6757C6.77101 20.6757 4.66466 20.535 3.08716 20.1173C2.30182 19.9093 1.56324 19.6116 1.00266 19.1616C0.41114 18.6868 0 18.0206 0 17.1757C0 16.3887 0.35805 15.6524 0.84397 15.0372C1.33788 14.412 2.02143 13.8359 2.82227 13.3472C4.42467 12.3694 6.60453 11.6757 9 11.6757ZM9 0.675659C11.7614 0.675659 14 2.91424 14 5.67566C14 8.43708 11.7614 10.6757 9 10.6757C6.23858 10.6757 4 8.43708 4 5.67566C4 2.91424 6.23858 0.675659 9 0.675659Z" fill="#60411C" fill-opacity="0.85"/>
</svg>
