<svg width="20" height="21" viewBox="0 0 20 21" fill="none" xmlns="http://www.w3.org/2000/svg">
<path fill-rule="evenodd" clip-rule="evenodd" d="M14.6876 20.4914C13.2467 20.4384 9.16597 19.875 4.89261 15.6016C0.619216 11.3282 0.0558163 7.24751 0.00279633 5.80656C-0.0780037 3.6111 1.6038 1.47791 3.54741 0.644937C4.00347 0.449477 4.55586 0.485247 4.99254 0.803777C6.59133 1.97 7.69597 3.73324 8.64427 5.12055C9.07267 5.74724 8.97027 6.60289 8.38837 7.10661L6.43723 8.55568C6.24384 8.69928 6.17954 8.96028 6.29553 9.17138C6.73698 9.97498 7.52344 11.1708 8.42337 12.0708C9.32437 12.9717 10.5767 13.8089 11.4355 14.3001C11.6582 14.4275 11.9383 14.3537 12.0791 14.1392L13.3484 12.2058C13.8351 11.558 14.7441 11.4165 15.4048 11.8738C16.8123 12.8479 18.4541 13.9326 19.6563 15.4722C19.9978 15.9096 20.0486 16.4816 19.8449 16.957C19.0081 18.9096 16.8905 20.5725 14.6876 20.4914Z" fill="#60411C" fill-opacity="0.85"/>
</svg>
