<svg width="19" height="19" viewBox="0 0 19 19" fill="none" xmlns="http://www.w3.org/2000/svg">
<path fill-rule="evenodd" clip-rule="evenodd" d="M12.525 3.74641C12.525 1.95839 13.9745 0.508911 15.7625 0.508911C17.5505 0.508911 19 1.95839 19 3.74641C19 5.53444 17.5505 6.98391 15.7625 6.98391C14.8536 6.98391 14.0321 6.60934 13.4441 6.00615L9.44465 8.1027C9.64186 8.61691 9.75 9.17533 9.75 9.75892C9.75 10.3425 9.64186 10.9009 9.44465 11.4151L13.4441 13.5116C14.0321 12.9084 14.8536 12.5339 15.7625 12.5339C17.5505 12.5339 19 13.9834 19 15.7714C19 17.5594 17.5505 19.0089 15.7625 19.0089C13.9745 19.0089 12.525 17.5594 12.525 15.7714C12.525 15.5589 12.5454 15.351 12.5846 15.1499L8.44436 12.9795C7.60384 13.8457 6.42728 14.3839 5.12499 14.3839C2.57068 14.3839 0.499992 12.3132 0.499992 9.75892C0.499992 7.2046 2.57068 5.13391 5.12499 5.13391C6.42727 5.13391 7.60383 5.67214 8.44436 6.53829L12.5846 4.36793C12.5455 4.16679 12.525 3.959 12.525 3.74641Z" fill="#60411C" fill-opacity="0.85"/>
</svg>
