<svg width="19" height="21" viewBox="0 0 19 21" fill="none" xmlns="http://www.w3.org/2000/svg">
<path d="M9.5 2.43994C14.4706 2.43994 18.5 6.46938 18.5 11.4399C18.5 16.4105 14.4706 20.4399 9.5 20.4399C4.52944 20.4399 0.5 16.4105 0.5 11.4399C0.5 6.46938 4.52944 2.43994 9.5 2.43994ZM9.5001 6.43994C8.98725 6.43994 8.56459 6.82599 8.50683 7.32332L8.5001 7.43994V11.4262C8.49718 11.6433 8.56447 11.8612 8.70197 12.0427L8.7929 12.147L10.8983 14.2524C11.2889 14.643 11.922 14.643 12.3125 14.2524C12.6731 13.892 12.7008 13.3248 12.3957 12.9325L12.3125 12.8382L10.5001 11.0258V7.43994C10.5001 6.88766 10.0524 6.43994 9.5001 6.43994ZM15.5008 1.04594C16.752 1.76974 17.8599 2.71266 18.7724 3.82211C19.1232 4.24867 19.0618 4.87885 18.6352 5.22966C18.2087 5.58048 17.5785 5.51908 17.2277 5.09252C16.4663 4.16679 15.5421 3.38036 14.4993 2.77715C14.0212 2.5006 13.8579 1.88888 14.1344 1.41082C14.411 0.932752 15.0227 0.769392 15.5008 1.04594ZM4.86563 1.41082C5.14218 1.88888 4.97882 2.5006 4.50075 2.77715C3.45799 3.38036 2.53373 4.16679 1.77237 5.09252C1.42156 5.51908 0.79138 5.58048 0.36482 5.22966C-0.0617301 4.87885 -0.12313 4.24867 0.22769 3.82211C1.14015 2.71266 2.24805 1.76974 3.4993 1.04594C3.97736 0.769392 4.58909 0.932762 4.86563 1.41082Z" fill="#60411C"/>
</svg>
