<svg width="20" height="17" viewBox="0 0 20 17" fill="none" xmlns="http://www.w3.org/2000/svg">
<path d="M16.475 6.34529C18.0076 6.34529 19.25 7.58766 19.25 9.12029V11.8953C19.25 13.4279 18.0076 14.6703 16.475 14.6703V15.564C16.475 16.5443 15.3316 17.0799 14.5785 16.4523L12.44 14.6703H9.99998C8.46735 14.6703 7.22498 13.4279 7.22498 11.8953V9.12029C7.22498 7.58766 8.46735 6.34529 9.99998 6.34529H16.475ZM13.7 0.795288C15.2326 0.795288 16.475 2.0377 16.475 3.57029V4.49529H9.07498C7.03153 4.49529 5.37498 6.15184 5.37498 8.19529V11.8953C5.37498 12.8615 5.74532 13.7412 6.3518 14.4002L5.37498 15.1328C4.61274 15.7044 3.52498 15.1606 3.52498 14.2078V12.8203C1.99239 12.8203 0.749977 11.5779 0.749977 10.0453V3.57029C0.749977 2.0377 1.99239 0.795288 3.52498 0.795288H13.7Z" fill="#60411C" fill-opacity="0.85"/>
</svg>
